PathFileType	4	(X/Y/Z)	Patient4_TMGait_0pt8_01_left_45.trc.trc
DataRate	CameraRate	NumFrames	NumMarkers	Units	OrigDataRate	OrigDataStartFrame	OrigNumFrames
84.848484848485	84.848484848485	4	33	mm	84.848484848485	53	       141
Frame#	Time	Sacral			L.Shoulder			Chest			R.Shoulder			Neck			R.ASIS			L.ASIS			R.Thigh.Superior			R.Thigh.Lateral			R.Thigh.Inferior			R.Patella			L.Thigh.Superior			L.Thigh.Lateral			L.Thigh.Inferior			L.Patella			L.Shank.Superior			L.Shank.Lateral			L.Shank.Inferior			R.Shank.Superior			R.Shank.Lateral			R.Shank.Inferior			R.Heel			R.Midfoot.Superior			R.Midfoot.Lateral			R.Toe			L.Heel			L.Midfoot.Lateral			L.Midfoot.Superior			L.Toe			L.Elbow			L.Wrist			R.Elbow			R.Wrist			
		X1	Y1	Z1	X2	Y2	Z2	X3	Y3	Z3	X4	Y4	Z4	X5	Y5	Z5	X6	Y6	Z6	X7	Y7	Z7	X8	Y8	Z8	X9	Y9	Z9	X10	Y10	Z10	X11	Y11	Z11	X12	Y12	Z12	X13	Y13	Z13	X14	Y14	Z14	X15	Y15	Z15	X16	Y16	Z16	X17	Y17	Z17	X18	Y18	Z18	X19	Y19	Z19	X20	Y20	Z20	X21	Y21	Z21	X22	Y22	Z22	X23	Y23	Z23	X24	Y24	Z24	X25	Y25	Z25	X26	Y26	Z26	X27	Y27	Z27	X28	Y28	Z28	X29	Y29	Z29	X30	Y30	Z30	X31	Y31	Z31	X32	Y32	Z32	X33	Y33	Z33	

53	50.632857142857	894.914241696593	1013.773919766920	454.875841374912	1089.938469273684	1440.567882663921	282.166083561790	1185.980942108198	1366.122156387987	445.698149058859	1097.507673329140	1437.449096574848	618.919772658816	1069.653150500649	1499.293395676671	439.856540258076	1119.524609644699	949.832228725390	574.885867144433	1111.263701212137	965.223524887012	301.444358284143	1211.271834364468	790.255819545287	542.686789351853	1182.292095916400	667.925572965303	617.981482931847	1273.140127495384	634.620518519171	536.940963386726	1300.390186576188	521.528631764107	559.154474354340	1159.376891449491	752.677220514464	334.997272121511	1068.803993422967	637.356345014751	277.463485183846	1149.144852269130	559.098389554966	345.699386389369	1147.733750818550	490.135256338205	357.885298734949	1121.922583654564	418.451969559419	349.594802650785	1034.214898739230	303.243715468628	298.732097559213	1081.303572842402	193.540152033891	374.005665525783	1225.474854759053	443.687184153036	568.635353591076	1105.228364083180	402.841551783032	630.849334429079	1093.000197266553	292.655331276094	583.957400730758	895.350755222644	233.182990220860	557.758600757019	1060.487060864886	166.927886919850	599.305475269082	950.917703241339	170.278106826321	630.838401873398	1118.657703827155	50.612006773135	623.345367366256	951.421750552780	38.333219760658	415.393829626692	1026.097011330425	36.263797994735	335.105147165971	1108.984924939502	96.924662495727	363.996503099581	1237.804400005190	44.882947792564	335.952110733189	1110.559505564615	1099.941584460188	135.438553413560	1268.398150108333	890.054745088742	136.660159319905	1059.405650501888	1082.265713079326	718.372894195726	1198.970935457807	862.727433539908	725.211885991360	
54	50.644642857143	893.217581360611	1014.142443600211	453.648570728828	1090.468503527157	1441.562838026144	282.631273053176	1185.214922787307	1366.203708837482	446.499117368133	1095.699514208011	1436.853935217496	619.379820277623	1069.080267833062	1499.630604977540	440.461193688855	1117.820005900768	950.897905389723	574.565739897350	1110.131067026476	965.556259184107	300.968892059008	1211.734465819260	794.508467575806	541.868908903861	1185.621959503791	671.717905688528	617.678339312739	1276.471884279486	639.881404938273	536.068838571046	1306.719107117719	528.256823866833	558.580464200388	1155.865856315621	751.692105742488	334.970585288245	1063.953418185319	637.317924567106	276.956104584877	1142.935706493668	558.063853390816	345.430746290472	1140.609945873881	489.273113314464	357.660362190852	1114.574836706395	417.895790800804	349.355136437810	1026.322674036818	303.153253127424	298.467569778906	1072.542952171594	193.248661445972	373.921350160035	1235.439511033406	447.920313595805	568.612395127564	1118.048862878038	400.557048679433	631.277489756491	1111.741997193490	289.759786626436	584.544552383006	917.565404994577	218.728497459292	558.848536631013	1086.521859762586	162.822259589229	600.688204506340	976.921443277578	159.797349113560	632.329165502468	1151.575264376024	50.363603702683	625.398399863982	941.935016385581	38.393817900762	415.329089474170	1016.634090165943	36.268905415246	335.088174332551	1099.587281463598	96.846606925860	363.981887895203	1228.390922091317	44.617347067383	335.916350623221	1119.248366240166	1103.277729289670	132.945809202907	1289.711558709289	903.416435161568	134.651914076679	1049.536056603666	1082.145724863534	717.048171707789	1167.771066135368	849.995045327196	726.234065044693	
55	50.656428571429	891.655740243507	1014.405532777735	452.576114207910	1091.126876434012	1442.456344361627	283.207704989072	1184.557459685808	1366.170512555098	447.401278341101	1094.010165959517	1436.144702042214	619.920711484993	1068.579130132654	1499.863093379491	441.158690404638	1116.196886110699	951.741806248115	574.356650038739	1109.079710239116	965.807237282763	300.591432535628	1211.867410874335	798.131918913925	541.323309194591	1188.206372101188	674.983072905001	617.560993595203	1278.912909865751	644.334601630996	535.410089283391	1311.861350021751	534.461397495428	558.241814374231	1152.312075749188	750.637746806782	335.029417093774	1059.060029511623	637.262376527513	276.488201853417	1136.627831183112	557.005296762171	345.165107902854	1133.377223767276	488.428390208058	357.406654572641	1107.132624472310	417.340124424084	349.104325733204	1018.365667111292	303.053466478607	298.193955127340	1063.742177760895	192.962123487622	373.824264740512	1244.631101674800	451.741191229083	568.734211596723	1130.725796023537	397.571889371259	631.902630102796	1130.803216657121	286.525931542104	585.217798081861	941.133173135174	203.516270581483	560.021831171282	1113.461838964590	158.628033274627	602.045010955730	1004.221883643342	148.901854060386	633.817000639128	1185.449671937814	50.562745467338	627.289645536282	932.453846682433	38.464544507614	415.256128040366	1007.169282976669	36.269697144099	335.071973863391	1090.191790801650	96.768150551581	363.960140993451	1218.973911158003	44.353586711639	335.884841337707	1127.484218089073	1106.711944215172	130.722738967202	1310.043634461804	917.748448043889	133.128864107490	1039.595869349229	1082.266402365978	715.820160387038	1136.272390278241	839.998790933079	726.955149990128	
56	50.668214285714	890.252712340367	1014.559914163511	451.667751531936	1091.894203709897	1443.220736862772	283.899427089835	1184.010580492262	1366.009849240325	448.404620935652	1092.455513969128	1435.321832567174	620.552221371719	1068.160054514288	1499.978382662080	441.949309551075	1114.668174095069	952.333372358898	574.244882426282	1108.112195125711	965.968258297543	300.308930291173	1211.652929378201	801.035561953285	541.012755172907	1189.996807222826	677.623949971501	617.627587588705	1280.446198967935	647.887589799531	534.981437321059	1315.798372550782	540.032265894268	558.127398189758	1148.748814600552	749.516699028698	335.147517571703	1054.125886908177	637.196386303876	276.056233488127	1130.229281978223	555.929088127194	344.890925698801	1126.046620764632	487.607053323980	357.121285587398	1099.599258948556	416.789588578275	348.838316081038	1010.341625959177	302.949918279045	297.906128399140	1054.903646020246	192.684040452777	373.711638105427	1252.992125573586	455.123403480678	568.984115407749	1143.252806959750	393.995542785231	632.721438498975	1150.070676982444	283.142732697458	585.946619769338	966.010232992002	187.951693291937	561.290612372026	1141.109967101554	154.612165978963	603.261882087572	1032.726194257446	137.954855130182	635.253801501065	1219.967268070416	51.530315248369	628.834108618256	922.978118964628	38.544408930991	415.175407349361	997.701876576485	36.266255510806	335.053834453023	1080.796494208823	96.691345556917	363.928147778084	1209.551332879490	44.097931363646	335.856874574334	1135.297549540396	1110.180652687328	128.757066954684	1329.301512850514	932.913954743482	132.061080900245	1029.449925364496	1082.674332269173	714.686547176433	1104.908670678946	832.726955397277	727.387876234032	
